<svg width="500" height="500" viewBox="0 0 500 500" fill="none" xmlns="http://www.w3.org/2000/svg">
<g clip-path="url(#clip0_1_5)">
<rect width="500" height="500" rx="50" fill="#FFA500"/>
<path d="M230.334 254.888C230.334 250.444 229.65 246.457 228.283 242.925C227.03 239.279 224.637 235.975 221.105 233.013C217.574 229.937 212.618 226.917 206.237 223.955C199.857 220.993 191.597 217.917 181.457 214.727C170.178 211.081 159.468 206.979 149.328 202.422C139.302 197.865 130.415 192.567 122.668 186.528C115.035 180.376 108.996 173.255 104.553 165.166C100.223 157.077 98.0586 147.677 98.0586 136.968C98.0586 126.6 100.337 117.201 104.895 108.77C109.452 100.225 115.832 92.9329 124.035 86.8945C132.238 80.7422 141.923 76.014 153.088 72.71C164.367 69.4059 176.729 67.7539 190.173 67.7539C208.516 67.7539 224.523 71.0579 238.195 77.666C251.867 84.2741 262.463 93.3317 269.982 104.839C277.616 116.346 281.433 129.505 281.433 144.316H230.505C230.505 137.025 228.967 130.645 225.891 125.176C222.928 119.593 218.371 115.207 212.219 112.017C206.18 108.826 198.547 107.231 189.318 107.231C180.432 107.231 173.026 108.599 167.102 111.333C161.177 113.953 156.734 117.542 153.771 122.1C150.809 126.543 149.328 131.556 149.328 137.139C149.328 141.354 150.354 145.171 152.404 148.589C154.569 152.007 157.759 155.197 161.975 158.159C166.19 161.121 171.374 163.913 177.526 166.533C183.679 169.154 190.799 171.717 198.889 174.224C212.447 178.325 224.353 182.939 234.606 188.066C244.974 193.193 253.633 198.947 260.583 205.327C267.533 211.707 272.774 218.942 276.306 227.031C279.838 235.12 281.604 244.292 281.604 254.546C281.604 265.369 279.496 275.054 275.28 283.599C271.065 292.144 264.969 299.378 256.994 305.303C249.019 311.227 239.506 315.728 228.454 318.804C217.403 321.88 205.041 323.418 191.369 323.418C179.064 323.418 166.931 321.823 154.968 318.633C143.005 315.329 132.124 310.373 122.326 303.765C112.642 297.157 104.895 288.726 99.084 278.472C93.2734 268.218 90.3682 256.084 90.3682 242.07H141.809C141.809 249.818 143.005 256.369 145.397 261.724C147.79 267.078 151.151 271.408 155.48 274.712C159.924 278.016 165.165 280.409 171.203 281.89C177.355 283.371 184.077 284.111 191.369 284.111C200.256 284.111 207.548 282.858 213.244 280.352C219.055 277.845 223.327 274.37 226.062 269.927C228.91 265.483 230.334 260.47 230.334 254.888ZM362.609 175.42V320H313.391V135.088H359.704L362.609 175.42ZM418.322 133.892L417.468 179.521C415.075 179.18 412.17 178.895 408.752 178.667C405.448 178.325 402.429 178.154 399.694 178.154C392.744 178.154 386.706 179.066 381.579 180.889C376.566 182.598 372.351 185.161 368.933 188.579C365.629 191.997 363.122 196.156 361.413 201.055C359.818 205.954 358.907 211.536 358.679 217.803L348.767 214.727C348.767 202.764 349.963 191.769 352.355 181.743C354.748 171.603 358.223 162.773 362.78 155.254C367.451 147.734 373.148 141.924 379.87 137.822C386.592 133.721 394.283 131.67 402.941 131.67C405.676 131.67 408.467 131.898 411.315 132.354C414.164 132.695 416.499 133.208 418.322 133.892Z" fill="black"/>
<path d="M159.069 415.698C159.069 415.063 158.972 414.494 158.776 413.989C158.597 413.468 158.256 412.996 157.751 412.573C157.246 412.134 156.538 411.702 155.627 411.279C154.715 410.856 153.535 410.417 152.087 409.961C150.476 409.44 148.946 408.854 147.497 408.203C146.065 407.552 144.795 406.795 143.688 405.933C142.598 405.054 141.735 404.036 141.101 402.881C140.482 401.725 140.173 400.382 140.173 398.853C140.173 397.371 140.498 396.029 141.149 394.824C141.8 393.604 142.712 392.562 143.884 391.699C145.056 390.82 146.439 390.145 148.034 389.673C149.646 389.201 151.411 388.965 153.332 388.965C155.952 388.965 158.239 389.437 160.192 390.381C162.146 391.325 163.659 392.619 164.733 394.263C165.824 395.907 166.369 397.786 166.369 399.902H159.094C159.094 398.861 158.874 397.949 158.435 397.168C158.011 396.37 157.36 395.744 156.481 395.288C155.619 394.832 154.528 394.604 153.21 394.604C151.94 394.604 150.882 394.8 150.036 395.19C149.19 395.565 148.555 396.077 148.132 396.729C147.709 397.363 147.497 398.079 147.497 398.877C147.497 399.479 147.644 400.024 147.937 400.513C148.246 401.001 148.701 401.457 149.304 401.88C149.906 402.303 150.646 402.702 151.525 403.076C152.404 403.451 153.422 403.817 154.577 404.175C156.514 404.761 158.215 405.42 159.68 406.152C161.161 406.885 162.398 407.707 163.391 408.618C164.383 409.53 165.132 410.563 165.637 411.719C166.141 412.874 166.394 414.185 166.394 415.649C166.394 417.196 166.092 418.579 165.49 419.8C164.888 421.021 164.017 422.054 162.878 422.9C161.739 423.747 160.38 424.39 158.801 424.829C157.222 425.269 155.456 425.488 153.503 425.488C151.745 425.488 150.012 425.26 148.303 424.805C146.594 424.333 145.039 423.625 143.64 422.681C142.256 421.737 141.149 420.532 140.319 419.067C139.489 417.603 139.074 415.869 139.074 413.867H146.423C146.423 414.974 146.594 415.91 146.936 416.675C147.277 417.44 147.757 418.058 148.376 418.53C149.011 419.002 149.759 419.344 150.622 419.556C151.501 419.767 152.461 419.873 153.503 419.873C154.772 419.873 155.814 419.694 156.628 419.336C157.458 418.978 158.068 418.481 158.459 417.847C158.866 417.212 159.069 416.496 159.069 415.698ZM177.966 404.346V425H170.935V398.584H177.551L177.966 404.346ZM185.925 398.413L185.803 404.932C185.461 404.883 185.046 404.842 184.558 404.81C184.086 404.761 183.654 404.736 183.264 404.736C182.271 404.736 181.408 404.867 180.676 405.127C179.96 405.371 179.357 405.737 178.869 406.226C178.397 406.714 178.039 407.308 177.795 408.008C177.567 408.708 177.437 409.505 177.404 410.4L175.988 409.961C175.988 408.252 176.159 406.681 176.501 405.249C176.843 403.8 177.339 402.539 177.99 401.465C178.658 400.391 179.471 399.561 180.432 398.975C181.392 398.389 182.491 398.096 183.728 398.096C184.118 398.096 184.517 398.128 184.924 398.193C185.331 398.242 185.664 398.315 185.925 398.413ZM196.667 398.584V425H189.611V398.584H196.667ZM189.172 391.699C189.172 390.674 189.53 389.827 190.246 389.16C190.962 388.493 191.923 388.159 193.127 388.159C194.315 388.159 195.267 388.493 195.983 389.16C196.716 389.827 197.082 390.674 197.082 391.699C197.082 392.725 196.716 393.571 195.983 394.238C195.267 394.906 194.315 395.239 193.127 395.239C191.923 395.239 190.962 394.906 190.246 394.238C189.53 393.571 189.172 392.725 189.172 391.699ZM202.868 398.584H209.924V426.587C209.924 428.54 209.566 430.192 208.85 431.543C208.133 432.894 207.1 433.919 205.749 434.619C204.398 435.319 202.762 435.669 200.842 435.669C200.24 435.669 199.654 435.636 199.084 435.571C198.498 435.506 197.896 435.4 197.277 435.254L197.302 429.858C197.692 429.924 198.075 429.972 198.449 430.005C198.807 430.054 199.174 430.078 199.548 430.078C200.28 430.078 200.891 429.956 201.379 429.712C201.867 429.468 202.233 429.085 202.478 428.564C202.738 428.06 202.868 427.401 202.868 426.587V398.584ZM202.307 391.699C202.307 390.674 202.665 389.827 203.381 389.16C204.113 388.493 205.074 388.159 206.262 388.159C207.466 388.159 208.426 388.493 209.143 389.16C209.859 389.827 210.217 390.674 210.217 391.699C210.217 392.725 209.859 393.571 209.143 394.238C208.426 394.906 207.466 395.239 206.262 395.239C205.074 395.239 204.113 394.906 203.381 394.238C202.665 393.571 202.307 392.725 202.307 391.699ZM229.772 419.043V407.275C229.772 406.429 229.634 405.705 229.357 405.103C229.081 404.484 228.649 404.004 228.063 403.662C227.494 403.32 226.753 403.149 225.842 403.149C225.061 403.149 224.385 403.288 223.815 403.564C223.246 403.825 222.806 404.207 222.497 404.712C222.188 405.2 222.033 405.778 222.033 406.445H215.002C215.002 405.322 215.262 404.256 215.783 403.247C216.304 402.238 217.061 401.351 218.054 400.586C219.047 399.805 220.227 399.194 221.594 398.755C222.977 398.315 224.523 398.096 226.232 398.096C228.283 398.096 230.106 398.438 231.701 399.121C233.296 399.805 234.549 400.83 235.461 402.197C236.389 403.564 236.853 405.273 236.853 407.324V418.628C236.853 420.076 236.942 421.265 237.121 422.192C237.3 423.104 237.561 423.901 237.902 424.585V425H230.798C230.456 424.284 230.196 423.389 230.017 422.314C229.854 421.224 229.772 420.133 229.772 419.043ZM230.7 408.911L230.749 412.891H226.818C225.891 412.891 225.085 412.996 224.401 413.208C223.718 413.42 223.156 413.721 222.717 414.111C222.277 414.486 221.952 414.925 221.74 415.43C221.545 415.934 221.447 416.488 221.447 417.09C221.447 417.692 221.586 418.237 221.862 418.726C222.139 419.198 222.538 419.572 223.059 419.849C223.579 420.109 224.19 420.239 224.89 420.239C225.948 420.239 226.867 420.028 227.648 419.604C228.43 419.181 229.032 418.66 229.455 418.042C229.895 417.424 230.122 416.838 230.139 416.284L231.994 419.263C231.734 419.93 231.376 420.622 230.92 421.338C230.48 422.054 229.919 422.729 229.235 423.364C228.552 423.983 227.73 424.495 226.77 424.902C225.809 425.293 224.67 425.488 223.352 425.488C221.675 425.488 220.153 425.155 218.786 424.487C217.435 423.804 216.361 422.868 215.563 421.68C214.782 420.475 214.392 419.108 214.392 417.578C214.392 416.195 214.652 414.966 215.173 413.892C215.694 412.817 216.459 411.914 217.468 411.182C218.493 410.433 219.771 409.871 221.301 409.497C222.831 409.106 224.605 408.911 226.623 408.911H230.7ZM249.157 404.224V425H242.126V398.584H248.718L249.157 404.224ZM248.132 410.864H246.228C246.228 408.911 246.48 407.153 246.984 405.591C247.489 404.012 248.197 402.669 249.108 401.562C250.02 400.439 251.102 399.585 252.355 398.999C253.625 398.397 255.041 398.096 256.604 398.096C257.84 398.096 258.972 398.275 259.997 398.633C261.022 398.991 261.901 399.561 262.634 400.342C263.382 401.123 263.952 402.157 264.343 403.442C264.75 404.728 264.953 406.299 264.953 408.154V425H257.873V408.13C257.873 406.958 257.71 406.047 257.385 405.396C257.059 404.744 256.579 404.289 255.944 404.028C255.326 403.752 254.561 403.613 253.649 403.613C252.705 403.613 251.883 403.8 251.184 404.175C250.5 404.549 249.93 405.07 249.475 405.737C249.035 406.388 248.701 407.153 248.474 408.032C248.246 408.911 248.132 409.855 248.132 410.864ZM283.19 389.453H296.447C299.165 389.453 301.501 389.86 303.454 390.674C305.424 391.488 306.937 392.692 307.995 394.287C309.053 395.882 309.582 397.843 309.582 400.171C309.582 402.075 309.257 403.711 308.605 405.078C307.971 406.429 307.067 407.56 305.896 408.472C304.74 409.367 303.381 410.083 301.818 410.62L299.499 411.841H287.976L287.927 406.128H296.496C297.782 406.128 298.848 405.9 299.694 405.444C300.541 404.989 301.175 404.354 301.599 403.54C302.038 402.726 302.258 401.782 302.258 400.708C302.258 399.569 302.046 398.584 301.623 397.754C301.2 396.924 300.557 396.289 299.694 395.85C298.832 395.41 297.749 395.19 296.447 395.19H290.515V425H283.19V389.453ZM303.063 425L294.958 409.155L302.697 409.106L310.9 424.658V425H303.063ZM329.04 419.043V407.275C329.04 406.429 328.902 405.705 328.625 405.103C328.348 404.484 327.917 404.004 327.331 403.662C326.761 403.32 326.021 403.149 325.109 403.149C324.328 403.149 323.653 403.288 323.083 403.564C322.513 403.825 322.074 404.207 321.765 404.712C321.455 405.2 321.301 405.778 321.301 406.445H314.27C314.27 405.322 314.53 404.256 315.051 403.247C315.572 402.238 316.328 401.351 317.321 400.586C318.314 399.805 319.494 399.194 320.861 398.755C322.245 398.315 323.791 398.096 325.5 398.096C327.551 398.096 329.374 398.438 330.969 399.121C332.564 399.805 333.817 400.83 334.729 402.197C335.656 403.564 336.12 405.273 336.12 407.324V418.628C336.12 420.076 336.21 421.265 336.389 422.192C336.568 423.104 336.828 423.901 337.17 424.585V425H330.065C329.724 424.284 329.463 423.389 329.284 422.314C329.121 421.224 329.04 420.133 329.04 419.043ZM329.968 408.911L330.017 412.891H326.086C325.158 412.891 324.353 412.996 323.669 413.208C322.985 413.42 322.424 413.721 321.984 414.111C321.545 414.486 321.219 414.925 321.008 415.43C320.812 415.934 320.715 416.488 320.715 417.09C320.715 417.692 320.853 418.237 321.13 418.726C321.407 419.198 321.805 419.572 322.326 419.849C322.847 420.109 323.457 420.239 324.157 420.239C325.215 420.239 326.135 420.028 326.916 419.604C327.697 419.181 328.299 418.66 328.723 418.042C329.162 417.424 329.39 416.838 329.406 416.284L331.262 419.263C331.001 419.93 330.643 420.622 330.188 421.338C329.748 422.054 329.187 422.729 328.503 423.364C327.819 423.983 326.997 424.495 326.037 424.902C325.077 425.293 323.938 425.488 322.619 425.488C320.943 425.488 319.421 425.155 318.054 424.487C316.703 423.804 315.629 422.868 314.831 421.68C314.05 420.475 313.659 419.108 313.659 417.578C313.659 416.195 313.92 414.966 314.44 413.892C314.961 412.817 315.726 411.914 316.735 411.182C317.761 410.433 319.038 409.871 320.568 409.497C322.098 409.106 323.872 408.911 325.891 408.911H329.968ZM348.986 422.021L355.993 398.584H363.537L352.917 428.979C352.689 429.647 352.38 430.363 351.989 431.128C351.615 431.893 351.102 432.617 350.451 433.301C349.816 434.001 349.011 434.57 348.034 435.01C347.074 435.449 345.894 435.669 344.494 435.669C343.827 435.669 343.282 435.628 342.858 435.547C342.435 435.465 341.931 435.352 341.345 435.205V430.054C341.524 430.054 341.711 430.054 341.906 430.054C342.102 430.07 342.289 430.078 342.468 430.078C343.396 430.078 344.152 429.972 344.738 429.761C345.324 429.549 345.796 429.224 346.154 428.784C346.512 428.361 346.797 427.808 347.009 427.124L348.986 422.021ZM346.057 398.584L351.794 417.725L352.795 425.171L348.01 425.684L338.513 398.584H346.057Z" fill="black"/>
</g>
<defs>
<clipPath id="clip0_1_5">
<rect width="500" height="500" fill="none"/>
</clipPath>
</defs>
</svg>
